<svg xmlns="http://www.w3.org/2000/svg" id="Слой_1" x="0" y="0" viewBox="0 0 2000 807.3" xml:space="preserve"><style>.st1{fill:#fcee21}</style><path d="M1861.8 756.4h-1723c-71 0-129-58-129-129V170.2c0-71 58-129 129-129h1723c70.9 0 129 58 129 129v457.2c0 71-58 129-129 129z" fill="#fff"/><circle class="st1" cx="502.3" cy="297.2" r="73"/><circle class="st1" cx="177.7" cy="297.2" r="73"/><path d="M453.3 415.6c-22.5 0-43.4-11.3-55.7-30.1l-20.2-31c-6.9-10.6-18.6-16.9-31.2-16.9h-16.3c-12.6 0-24.3 6.3-31.2 16.9l-20.2 31c-12.3 18.9-33.2 30.1-55.7 30.1-33.9 0-62.3-25.4-66.1-59l-9.8-85.7c-2.7-23.4 4.8-47 20.5-64.6s38.2-27.7 61.8-27.7c21.8 0 42.4 8.4 58 23.7 6.2 6.1 12.3 10.5 18.7 13.4l1.7.8c19.4 9 41.7 9 61.2 0l1.7-.8c6.4-3 12.5-7.4 18.7-13.4 15.6-15.3 36.2-23.7 58-23.7 23.6 0 46.1 10.1 61.8 27.7 15.7 17.6 23.2 41.1 20.5 64.5l-9.8 85.7c-4.2 33.8-32.6 59.1-66.4 59.1zM329.8 308.4h16.3c22.5 0 43.4 11.3 55.7 30.1l20.2 31c6.9 10.6 18.6 16.9 31.2 16.9 19 0 34.9-14.2 37.1-33l9.8-85.7c1.7-15.2-3.1-30.4-13.2-41.7-10.1-11.4-24.7-17.9-40-17.9-14.1 0-27.4 5.4-37.5 15.3-8.6 8.4-17.4 14.7-26.8 19.1l-1.7.8c-27.3 12.7-58.6 12.7-85.9 0l-1.7-.8c-9.4-4.4-18.2-10.6-26.8-19.1-10.1-9.9-23.4-15.3-37.5-15.3-15.2 0-29.8 6.5-40 17.9-10.1 11.4-15 26.6-13.2 41.7l9.8 85.7c2.2 18.8 18.1 33 37.1 33 12.6 0 24.3-6.3 31.2-16.9l20.2-31c12.3-18.9 33.2-30.1 55.7-30.1zm539.3 63.1v-97.1l-47.8 81.7H807l-47-82v97.3h-30.3V225.1h34.8l50.5 91.6 52.9-91.6H899l.3 146.4h-30.2zm99.1-7.7c-11.5-6.4-20.5-15.3-27-26.7s-9.7-24.4-9.7-38.8c0-14.4 3.2-27.3 9.7-38.7 6.5-11.3 15.5-20.2 27-26.6 11.5-6.4 24.4-9.6 38.8-9.6 14.5 0 27.5 3.2 39.1 9.6 11.5 6.4 20.5 15.3 27 26.6s9.7 24.2 9.7 38.7c0 14.4-3.2 27.4-9.7 38.8-6.5 11.4-15.5 20.3-27 26.7s-24.5 9.6-39.1 9.6c-14.4 0-27.3-3.2-38.8-9.6zm69.1-32.4c8-8.4 12-19.5 12-33.2s-4-24.8-12-33.2-18.1-12.6-30.3-12.6-22.3 4.2-30.2 12.6c-7.9 8.4-11.8 19.5-11.8 33.2s3.9 24.8 11.8 33.2c7.9 8.4 17.9 12.6 30.2 12.6 12.2.1 22.3-4.1 30.3-12.6zm193.2-106.3v146.4h-29.8v-44.1h-37.5l-29 44.1h-35.6l33.5-48.8c-10.3-3.7-18.1-9.3-23.5-16.9-5.4-7.6-8.1-16.9-8.1-28.1 0-16.8 5.8-29.8 17.3-38.9 11.5-9.1 27.4-13.7 47.6-13.7h65.1zm-96.2 53.7c0 16.4 10.4 24.7 31.1 24.7h35.3v-49.6h-34.3c-21.4 0-32.1 8.3-32.1 24.9zM797.5 524.9h-17v52.9H730V429.2h50.5V484h18.1l35.3-54.8h53.4l-48.4 71.3 51.5 77.3H831l-33.5-52.9zm134.7 45.5c-12.4-6.6-22.1-15.7-29.1-27.4s-10.5-24.9-10.5-39.8c0-14.6 3.5-27.8 10.5-39.5s16.6-20.8 29-27.3c12.3-6.5 26.3-9.7 41.8-9.7 15.6 0 29.6 3.2 42 9.7s22.1 15.5 29 27.1 10.4 24.8 10.4 39.6-3.5 28.1-10.4 39.8c-6.9 11.7-16.6 20.8-29 27.4s-26.4 9.9-42 9.9c-15.4.1-29.3-3.2-41.7-9.8zm63.5-41c5.7-6.3 8.5-15 8.5-26.2 0-11-2.8-19.6-8.5-25.8-5.7-6.2-12.9-9.3-21.8-9.3s-16.1 3.1-21.8 9.3c-5.7 6.2-8.5 14.8-8.5 25.8 0 11.2 2.8 19.9 8.5 26.2 5.7 6.3 12.9 9.5 21.8 9.5s16.1-3.2 21.8-9.5zm83.2-100.2h50.2v55.1h51.8v-55.1h50.5v148.6h-50.5v-52.1h-51.8v52.1h-50.2V429.2zm216 141.2c-12.6-6.6-22.4-15.7-29.4-27.4s-10.5-24.9-10.5-39.8c0-14.8 3.5-28 10.5-39.6s16.8-20.7 29.4-27.1c12.6-6.5 26.8-9.7 42.8-9.7 16.3 0 30.4 3.6 42.2 10.8 11.9 7.2 20.3 17.2 25.2 30l-39.1 20.6c-6.6-13.3-16.1-20-28.7-20-9 0-16.5 3.1-22.5 9.3-5.9 6.2-8.9 14.8-8.9 25.8 0 11.2 3 19.9 8.9 26.2 5.9 6.3 13.4 9.5 22.5 9.5 12.6 0 22.1-6.7 28.7-20l39.1 20.6c-5 12.8-13.4 22.8-25.2 30-11.9 7.2-26 10.8-42.2 10.8-16-.1-30.2-3.4-42.8-10zm158.9 0c-12.4-6.6-22.1-15.7-29.1-27.4s-10.5-24.9-10.5-39.8c0-14.6 3.5-27.8 10.5-39.5s16.6-20.8 29-27.3c12.3-6.5 26.3-9.7 41.8-9.7 15.6 0 29.6 3.2 42 9.7s22.1 15.5 29 27.1 10.4 24.8 10.4 39.6-3.5 28.1-10.4 39.8c-6.9 11.7-16.6 20.8-29 27.4s-26.4 9.9-42 9.9c-15.4.1-29.3-3.2-41.7-9.8zm63.5-41c5.7-6.3 8.5-15 8.5-26.2 0-11-2.8-19.6-8.5-25.8-5.7-6.2-12.9-9.3-21.8-9.3s-16.1 3.1-21.8 9.3c-5.7 6.2-8.5 14.8-8.5 25.8 0 11.2 2.8 19.9 8.5 26.2 5.7 6.3 12.9 9.5 21.8 9.5s16.1-3.2 21.8-9.5zm227.1-100.2v148.6H1694V470.6h-36.4l-1.1 22.8c-.7 19.4-2.6 35.4-5.6 48s-8 22.4-14.9 29.5c-6.9 7-16.4 10.6-28.4 10.6-6.2 0-14.3-1.2-24.4-3.6l2.1-42.5c3.2.4 5.3.5 6.4.5 5.5 0 9.7-1.8 12.5-5.5s4.8-8.5 5.8-14.7c1.1-6.1 1.8-14.3 2.1-24.5l2.1-62h130.2zm162.4 59.3c10.1 8.6 15.1 20.8 15.1 36.7 0 16.5-5.8 29.4-17.4 38.8s-27.6 14-48 13.8h-78.1V429.2h50.2v46.1h34.3c19.2.2 33.8 4.6 43.9 13.2zm-36.1 35.9c0-5.8-1.6-10.1-4.8-12.9-3.2-2.7-8-4.2-14.3-4.4h-22.9v34.8l22.9.3c12.7 0 19.1-5.9 19.1-17.8z"/></svg>