<svg xmlns="http://www.w3.org/2000/svg" width="107" height="44" fill="none"><rect width="107" height="44" rx="7" fill="#fff"/><path fill-rule="evenodd" clip-rule="evenodd" d="M35.906 20.826a9.335 9.335 0 01-9.335 9.335 9.336 9.336 0 119.335-9.335z" fill="#FCEE21"/><path fill-rule="evenodd" clip-rule="evenodd" d="M51.486 20.826v-5.237l-2.634 4.408h-.79l-2.589-4.422v5.25h-1.668v-7.899h1.917l2.78 4.941 2.911-4.94h1.712l.015 7.899m6.962-2.21c.417-.443.624-1.026.624-1.747 0-.723-.207-1.305-.624-1.749-.417-.442-.944-.663-1.583-.663-.638 0-1.164.221-1.576.663-.412.444-.618 1.026-.618 1.749 0 .721.206 1.304.618 1.747.412.442.938.665 1.576.665.639 0 1.166-.223 1.583-.665zm-3.61 1.704a3.6 3.6 0 01-1.409-1.409c-.338-.6-.507-1.282-.507-2.042 0-.761.17-1.44.507-2.037a3.622 3.622 0 011.409-1.401c.601-.337 1.277-.505 2.027-.505.759 0 1.44.168 2.041.505a3.62 3.62 0 011.409 1.401c.337.597.506 1.276.506 2.037 0 .76-.169 1.441-.506 2.042a3.599 3.599 0 01-1.409 1.409c-.602.337-1.282.506-2.041.506-.75 0-1.426-.169-2.027-.506zm8.138-7.394h1.682v5.207l3.967-5.207h1.533v7.9h-1.68v-5.207l-3.955 5.207h-1.546m-17.617 7.073c-.077.451-.222.81-.435 1.077h2.724V25.3h-2.1l-.03.8c-.029.749-.081 1.348-.159 1.799zm6.128 1.077v4.057h-2.55v-1.72h-4.94v1.72h-2.564v-4.057h.289c.473-.01.801-.285.985-.824.184-.538.294-1.294.333-2.267l.102-2.905h7.259v5.996m4.39-3.74c-.289.236-.472.555-.55.96h3.254c-.079-.405-.262-.724-.55-.96-.288-.234-.648-.352-1.077-.352-.43 0-.789.118-1.077.352zm5.268 2.371H55.94c.118.395.345.699.682.91.337.211.76.318 1.268.318.38 0 .711-.053.99-.156.278-.103.558-.273.842-.508l1.466 1.467c-.772.827-1.901 1.241-3.386 1.241-.928 0-1.744-.169-2.448-.508-.704-.338-1.248-.808-1.634-1.41-.387-.602-.578-1.284-.578-2.046 0-.752.187-1.426.564-2.024a3.884 3.884 0 011.56-1.403c.665-.34 1.412-.508 2.243-.508.791 0 1.51.157 2.154.472a3.695 3.695 0 011.532 1.369c.376.596.564 1.305.564 2.123 0 .02-.015.24-.044.663zm6.319.75c0-.485-.303-.728-.909-.728H65.5v1.457h1.599c.623 0 .935-.242.935-.729zm-2.534-2.2h1.409c.596 0 .894-.238.894-.715 0-.456-.298-.684-.894-.684h-1.409v1.4zm4.877 2.448c0 .71-.257 1.266-.772 1.67-.515.403-1.274.604-2.276.604h-4.133v-7.9h3.943c.957 0 1.7.18 2.23.54.528.36.792.865.792 1.516 0 .379-.09.713-.272 1.005a1.94 1.94 0 01-.772.7c.84.301 1.26.923 1.26 1.866zm5.606.355c.222-.149.382-.37.48-.662v-.662h-1.093c-.737 0-1.105.258-1.105.774 0 .236.084.425.253.565.169.14.4.212.693.212.292 0 .55-.075.772-.226zm2.065-5.113c.63.579.947 1.465.947 2.66v4.245h-2.359v-.987c-.364.743-1.074 1.114-2.13 1.114-.56 0-1.045-.103-1.453-.31a2.188 2.188 0 01-.926-.84 2.318 2.318 0 01-.314-1.206c0-.724.263-1.286.787-1.686.524-.4 1.332-.599 2.425-.599h1.438c-.044-.808-.555-1.213-1.532-1.213-.347 0-.697.059-1.052.176-.355.118-.657.28-.907.487l-.852-1.82c.4-.282.886-.5 1.46-.656a6.574 6.574 0 011.724-.232c1.199 0 2.114.289 2.744.867zm3.1-.867h2.755v4.14l3.31-4.14h2.552v7.9h-2.771v-4.154l-3.28 4.153h-2.566m12.153-.508a3.8 3.8 0 01-1.547-1.41c-.367-.602-.552-1.284-.552-2.046 0-.761.185-1.44.552-2.038a3.77 3.77 0 011.546-1.396c.661-.335 1.412-.501 2.25-.501.856 0 1.597.186 2.222.557a3.086 3.086 0 011.33 1.545l-2.057 1.058c-.345-.687-.846-1.03-1.51-1.03-.474 0-.867.16-1.181.48-.31.319-.468.762-.468 1.325 0 .574.158 1.023.468 1.348.314.324.707.486 1.18.486.665 0 1.166-.343 1.51-1.029l2.057 1.057a3.082 3.082 0 01-1.329 1.546c-.625.37-1.366.556-2.221.556-.84 0-1.59-.169-2.25-.508zM13.993 16.887c-2.032 0-3.685 1.767-3.685 3.938 0 2.172 1.653 3.94 3.685 3.94H26.94c2.032 0 3.686-1.768 3.686-3.94 0-2.171-1.654-3.938-3.686-3.938H13.993zM26.94 26.57H13.993c-2.963 0-5.376-2.577-5.376-5.745 0-3.167 2.413-5.744 5.376-5.744H26.94c2.964 0 5.375 2.577 5.375 5.744 0 3.168-2.411 5.745-5.375 5.745zm43.435-15.283c-.59.614-1.31.921-2.154.921a2.875 2.875 0 01-2.155-.92V9.335c.66.627 1.377.942 2.155.942.776 0 1.494-.315 2.154-.942m16.518 12.231a3.531 3.531 0 01-2.156.696 3.53 3.53 0 01-2.153-.696V19.39c.601.417 1.32.625 2.153.625.827 0 1.546-.208 2.156-.625" fill="#000"/></svg>